<svg width="20" height="20" viewBox="0 0 20 20" fill="#7790A6" xmlns="http://www.w3.org/2000/svg">
<path fill-rule="evenodd" clip-rule="evenodd" d="M10.0001 18.3337C14.6025 18.3337 18.3334 14.6027 18.3334 10.0003C18.3334 5.39795 14.6025 1.66699 10.0001 1.66699C5.39771 1.66699 1.66675 5.39795 1.66675 10.0003C1.66675 14.6027 5.39771 18.3337 10.0001 18.3337ZM12.3571 6.46479C12.6825 6.13936 13.2102 6.13936 13.5356 6.46479C13.8611 6.79023 13.8611 7.31787 13.5356 7.6433L11.1786 10.0003L13.5356 12.3573C13.8611 12.6828 13.8611 13.2104 13.5356 13.5359C13.2102 13.8613 12.6825 13.8613 12.3571 13.5359L10.0001 11.1788L7.64306 13.5359C7.31762 13.8613 6.78998 13.8613 6.46455 13.5359C6.13911 13.2104 6.13911 12.6828 6.46455 12.3573L8.82157 10.0003L6.46455 7.6433C6.13911 7.31787 6.13911 6.79023 6.46455 6.46479C6.78998 6.13936 7.31762 6.13936 7.64306 6.46479L10.0001 8.82182L12.3571 6.46479Z" />
</svg>
