<svg width="24" height="24" viewBox="0 0 24 24" fill="#7790A6" xmlns="http://www.w3.org/2000/svg">
<path d="M9.13673 5.19923L3.04297 2C2.51098 2.19918 2 2.85196 2 3.60547V17.2656C2 17.8633 2.29297 18.4024 2.78512 18.7305L7.47263 21.7044C8.59337 22.4664 10.2031 21.6764 10.2031 20.2396V6.82814C10.2031 6.13669 9.81638 5.53903 9.13673 5.19923ZM7.85939 13.1719C7.85939 13.4958 7.59732 13.7578 7.27345 13.7578C6.94958 13.7578 6.68751 13.4958 6.68751 13.1719V10.8281C6.68751 10.5043 6.94958 10.2422 7.27345 10.2422C7.59732 10.2422 7.85939 10.5043 7.85939 10.8281V13.1719Z" />
<path d="M21.7683 11.5332L17.6487 8.65719C17.2796 8.28805 16.6485 8.54945 16.6485 9.07145V10.8281H11.9609C11.6373 10.8281 11.375 11.0904 11.375 11.4141V12.5859C11.375 12.9095 11.6373 13.1719 11.9609 13.1719H16.6485V14.9285C16.6485 15.4505 17.2795 15.7119 17.6486 15.3428L21.7683 12.4667C22.0772 12.2322 22.0772 11.7677 21.7683 11.5332Z" />
<path d="M11.375 14.3438V19.6563H13.1328C14.1021 19.6563 14.8906 18.8677 14.8906 17.8984V14.3438C12.8357 14.3438 13.4337 14.3438 11.375 14.3438Z" />
<path d="M13.1328 2H5.5639L9.65849 4.14977L9.66071 4.1509C9.66087 4.15098 9.66091 4.1511 9.66091 4.1511L9.6813 4.16176C10.7342 4.68766 11.375 5.68845 11.375 6.82829V9.65627C13.4337 9.65627 12.8358 9.65627 14.8906 9.65627V3.75782C14.8906 2.78852 14.1021 2 13.1328 2Z" />
</svg>
