<svg width="24" height="24" viewBox="0 0 24 24" fill="#7790A6" xmlns="http://www.w3.org/2000/svg">
<path d="M2.70232 2.72845C3.0902 2.32614 3.72547 2.31988 4.12125 2.71447L21.2834 19.8252C21.6791 20.2198 21.6855 20.8659 21.2977 21.2682C20.9098 21.6705 20.2745 21.6767 19.8787 21.2821L2.71663 4.17138C2.32085 3.77679 2.31445 3.13077 2.70232 2.72845Z"/>
<path d="M2.70056 21.2702C2.31365 20.8669 2.32084 20.2202 2.71662 19.8256L19.8788 2.71476C20.2745 2.32017 20.909 2.32718 21.2959 2.73042C21.6828 3.13366 21.6756 3.78044 21.2799 4.17503L4.11773 21.2858C3.72195 21.6804 3.08746 21.6734 2.70056 21.2702Z"/>
</svg>
