<svg width="24" height="24" viewBox="0 0 24 24" fill="#7790A6" xmlns="http://www.w3.org/2000/svg">
<path d="M12.7812 6.9248C11.9246 7.41074 10.9611 7.66426 9.95205 7.66426H8.22545C7.98162 7.66426 7.7415 7.63828 7.50775 7.58922V8.83613C7.50775 11.3131 9.52295 13.3283 11.9999 13.3283C14.4769 13.3283 16.4921 11.3131 16.4921 8.83613V7.66426H15.6103C14.6013 7.66426 13.6378 7.41074 12.7812 6.9248Z" />
<path d="M9.68293 18.6802H9.81961L5.73649 14.9609C3.60678 15.2957 2 16.7985 2 18.6021V21.4146C2 21.7382 2.32761 22.0005 2.73171 22.0005H7.22029C7.00224 21.6812 6.87805 21.3152 6.87805 20.9263C6.87805 19.6878 8.13629 18.6802 9.68293 18.6802Z" />
<path d="M11.1064 19.8516H9.68314C8.94343 19.8516 8.34167 20.3335 8.34167 20.9258C8.34167 21.5179 8.94294 21.9996 9.68221 22H13.465L11.1064 19.8516Z" />
<path d="M15.6104 6.49219C14.5715 6.49219 13.5853 6.14914 12.7812 5.51664C11.9772 6.14914 10.9909 6.49219 9.95204 6.49219H8.22544C6.99286 6.49219 5.96431 5.5134 5.94552 4.28094C5.92642 3.02652 6.94126 2 8.19138 2H13.9531C15.3554 2 16.4922 3.13676 16.4922 4.53906V6.49219H15.6104Z" />
<path d="M21.9999 18.6011C21.9999 16.5516 19.9252 14.8901 17.3658 14.8901H14.439V14.1523C13.6783 14.3768 12.8567 14.4995 11.9999 14.4995C11.1432 14.4995 10.3215 14.3768 9.56091 14.1523V14.6682L16.6341 17.9795V17.8198C16.6341 17.4962 16.9617 17.2339 17.3658 17.2339C17.7699 17.2339 18.0975 17.4962 18.0975 17.8198V18.6646L21.9999 20.4915V18.6011Z" />
<path d="M8.10846 15.3457L15.4133 21.9997H21.2684C21.5017 21.9997 21.7092 21.9119 21.8431 21.7756L8.10846 15.3457Z" />
</svg>
