<svg width="24" height="24" viewBox="0 0 24 24" fill="#7790A6" xmlns="http://www.w3.org/2000/svg">
<path d="M5.15645 20C4.31959 19.9995 3.51711 19.6307 2.92528 18.9745C2.33346 18.3184 2.00066 17.4286 2 16.5005V7.49764C1.99984 6.85129 2.16124 6.21754 2.46626 5.66677C2.77128 5.11599 3.20798 4.66975 3.72788 4.3776C4.24778 4.08544 4.83053 3.95881 5.41141 4.01175C5.99229 4.0647 6.54857 4.29516 7.01848 4.67754L10.1683 7.2416C10.2094 6.61881 10.4003 6.01961 10.7209 5.50627C11.0415 4.99292 11.4803 4.58416 11.9915 4.32246C12.5028 4.06076 13.0679 3.95568 13.6282 4.01812C14.1885 4.08056 14.7235 4.30825 15.1776 4.67754L20.7128 9.17898C21.1118 9.5039 21.4362 9.92841 21.6599 10.4182C21.8835 10.9079 22 11.4492 22 11.9982C22 12.5471 21.8835 13.0884 21.6599 13.5781C21.4362 14.0679 21.1118 14.4924 20.7128 14.8173L15.1776 19.3188C14.7236 19.688 14.1888 19.9157 13.6286 19.9782C13.0685 20.0408 12.5034 19.9358 11.9922 19.6743C11.481 19.4129 11.0422 19.0044 10.7215 18.4913C10.4007 17.9782 10.2097 17.3792 10.1683 16.7566L7.01848 19.3206C6.47887 19.7612 5.82652 19.9992 5.15645 20Z" />
</svg>
