<svg width="24" height="24" viewBox="0 0 24 24" fill="#7790A6" xmlns="http://www.w3.org/2000/svg">
<path fill-rule="evenodd" clip-rule="evenodd" d="M12 2C11.8733 2 11.7494 2.03642 11.6439 2.10468C9.21698 3.69534 6.45056 4.73004 3.55286 5.13088C3.3995 5.15196 3.25912 5.22616 3.15754 5.33984C3.05597 5.45352 3.00002 5.59903 3 5.74961V11.3745C3 16.2369 5.96743 19.7869 11.7686 21.9581C11.9175 22.014 12.0825 22.014 12.2314 21.9581C18.0339 19.7869 21 16.2382 21 11.3745V5.74961C21 5.59922 20.9443 5.45386 20.8429 5.34021C20.7416 5.22655 20.6016 5.15223 20.4484 5.13088C17.5503 4.73022 14.7834 3.69552 12.3561 2.10468C12.2506 2.03642 12.1267 2 12 2ZM12.6675 10.1115V9.667C12.6675 9.29863 12.3689 9 12.0005 9C11.6321 9 11.3335 9.29863 11.3335 9.667V10.1115H12.6675ZM9.33351 10.1115H9C8.44772 10.1115 8 10.5592 8 11.1115V14.89C8 15.4423 8.44771 15.89 9 15.89H15.001C15.5533 15.89 16.001 15.4423 16.001 14.89V11.1115C16.001 10.5592 15.5533 10.1115 15.001 10.1115H14.6675V9.667C14.6675 8.19406 13.4735 7 12.0005 7C10.5276 7 9.33351 8.19406 9.33351 9.667V10.1115ZM12.4609 13.1742C12.7242 13.0172 12.9006 12.7295 12.9006 12.4007C12.9006 11.9036 12.4976 11.5006 12.0005 11.5006C11.5034 11.5006 11.1004 11.9036 11.1004 12.4007C11.1004 12.7295 11.2768 13.0172 11.5401 13.1743L11.4004 14.5009H12.6006L12.4609 13.1742Z"/>
</svg>
