<svg width="24" height="24" viewBox="0 0 24 24" fill="#7790A6" xmlns="http://www.w3.org/2000/svg">
<path d="M21.331 7.44275C20.912 7.17879 20.397 7.15544 19.958 7.37879L18.476 8.12701C17.928 8.40316 17.588 8.96153 17.588 9.58285V15.4164C17.588 16.0377 17.928 16.595 18.476 16.8732L19.957 17.6204C20.158 17.724 20.373 17.7737 20.588 17.7737C20.846 17.7737 21.102 17.7006 21.331 17.5575C21.75 17.2945 22 16.8387 22 16.3392V8.66204C22 8.16255 21.75 7.70671 21.331 7.44275Z" />
<path d="M11.9051 20H6.11304C3.69102 20 2 18.3299 2 15.9391V9.06091C2 6.66904 3.69102 5 6.11304 5H11.9051C14.3271 5 16.0181 6.66904 16.0181 9.06091V15.9391C16.0181 18.3299 14.3271 20 11.9051 20Z" />
</svg>
