<svg width="24" height="24" viewBox="0 0 24 24" fill="#7790A6" xmlns="http://www.w3.org/2000/svg">
<path fill-rule="evenodd" clip-rule="evenodd" d="M3 5C3 3.34315 4.34315 2 6 2H18C19.6569 2 21 3.34315 21 5V12.4982C20.2304 12.1772 19.3859 12 18.5 12C16.5533 12 14.8065 12.8558 13.6152 14.2116C13.4456 14.079 13.232 14 13 14H7C6.44772 14 6 14.4477 6 15C6 15.5523 6.44772 16 7 16H12.4982C12.1772 16.7696 12 17.6141 12 18.5C12 19.7886 12.375 20.9897 13.0218 22H6C4.34315 22 3 20.6569 3 19V5ZM6 7C6 6.44772 6.44772 6 7 6H17C17.5523 6 18 6.44772 18 7C18 7.55228 17.5523 8 17 8H7C6.44772 8 6 7.55228 6 7ZM7 10C6.44772 10 6 10.4477 6 11C6 11.5523 6.44772 12 7 12H11C11.5523 12 12 11.5523 12 11C12 10.4477 11.5523 10 11 10H7ZM16.95 15.05C16.95 14.4701 17.4201 14 18 14C18.5799 14 19.05 14.4701 19.05 15.05V16.95H20.95C21.5299 16.95 22 17.4201 22 18C22 18.5799 21.5299 19.05 20.95 19.05H19.05V20.95C19.05 21.5299 18.5799 22 18 22C17.4201 22 16.95 21.5299 16.95 20.95V19.05H15.05C14.4701 19.05 14 18.5799 14 18C14 17.4201 14.4701 16.95 15.05 16.95H16.95V15.05Z" />
</svg>
