<svg width="24" height="24" viewBox="0 0 24 24" fill="#7790A6" xmlns="http://www.w3.org/2000/svg">
<path fill-rule="evenodd" clip-rule="evenodd" d="M19.7765 1.5426C19.837 1.31661 20.0693 1.1825 20.2953 1.24306C20.5213 1.30361 20.6554 1.53589 20.5948 1.76187L20.4761 2.20508L20.812 2.29508C20.9453 2.33081 21.0245 2.46789 20.9887 2.60126L20.9187 2.86263C21.2672 2.96621 21.4718 3.32924 21.3771 3.68259L21 5.09003V5.09005L20.3904 7.3652C20.3546 7.49856 20.2176 7.57771 20.0842 7.54199C20.0842 7.54198 20.0842 7.54198 20.0842 7.54198C19.9508 7.50624 19.8717 7.36916 19.9074 7.23579L20.7975 3.91398L20.8942 3.55318C20.9174 3.46662 20.8709 3.37782 20.7891 3.3463L20.698 3.68637L19.2992 8.90666L19 8.82649L17.3673 8.38902L18.5066 4.13738L19.0307 2.18149L19.0569 2.08362C19.0926 1.95026 19.2297 1.87111 19.3631 1.90685L19.6577 1.9858L19.7765 1.5426ZM19 9.70361L19.0799 9.72502L19 10.0233V10.0233L17.9138 14.077C17.8146 14.4472 17.6627 14.8012 17.4628 15.1282L16.098 17.3607C16.046 17.4457 15.9152 17.4107 15.9127 17.311L15.8469 14.6952C15.8373 14.3121 15.8828 13.9296 15.982 13.5594L17.1481 9.20738L19 9.70361ZM6 3.99976H16.9905L17.5264 1.99976H6C4.34315 1.99976 3 3.3429 3 4.99976V18.9998C3 20.6566 4.34315 21.9998 6 21.9998H18C19.6569 21.9998 21 20.6566 21 18.9998V8.82959C20.9523 8.85617 20.9033 8.88053 20.8532 8.90258L19.3627 14.4653C19.2727 14.8011 19.1512 15.1272 19 15.4394V18.9998C19 19.552 18.5523 19.9998 18 19.9998H6C5.44772 19.9998 5 19.552 5 18.9998V4.99976C5 4.44747 5.44771 3.99976 6 3.99976ZM9 6.99977C8.44772 6.99977 8 7.44748 8 7.99977C8 8.55205 8.44772 8.99977 9 8.99977H14C14.5523 8.99977 15 8.55205 15 7.99977C15 7.44748 14.5523 6.99977 14 6.99977H9ZM8 11.9998C8 11.4475 8.44772 10.9998 9 10.9998H11C11.5523 10.9998 12 11.4475 12 11.9998C12 12.552 11.5523 12.9998 11 12.9998H9C8.44772 12.9998 8 12.552 8 11.9998ZM9 15.9998C8.44772 15.9998 8 16.4475 8 16.9998C8 17.552 8.44772 17.9998 9 17.9998H13C13.5523 17.9998 14 17.552 14 16.9998C14 16.4475 13.5523 15.9998 13 15.9998H9Z" />
</svg>
