<svg width="24" height="24" viewBox="0 0 24 24" fill="#7790A6" xmlns="http://www.w3.org/2000/svg">
<path d="M18.8436 20C19.6804 19.9995 20.4829 19.6307 21.0747 18.9745C21.6665 18.3184 21.9993 17.4286 22 16.5005V7.49764C22.0002 6.85129 21.8388 6.21754 21.5337 5.66677C21.2287 5.11599 20.792 4.66975 20.2721 4.3776C19.7522 4.08544 19.1695 3.95881 18.5886 4.01175C18.0077 4.0647 17.4514 4.29516 16.9815 4.67754L13.8317 7.2416C13.7906 6.61881 13.5997 6.01961 13.2791 5.50627C12.9585 4.99292 12.5197 4.58416 12.0085 4.32246C11.4972 4.06076 10.9321 3.95568 10.3718 4.01812C9.8115 4.08056 9.27652 4.30825 8.82243 4.67754L3.28719 9.17898C2.88819 9.5039 2.56376 9.92841 2.34014 10.4182C2.11652 10.9079 2 11.4492 2 11.9982C2 12.5471 2.11652 13.0884 2.34014 13.5781C2.56376 14.0679 2.88819 14.4924 3.28719 14.8173L8.82243 19.3188C9.27641 19.688 9.81124 19.9157 10.3714 19.9782C10.9315 20.0408 11.4966 19.9358 12.0078 19.6743C12.519 19.4129 12.9578 19.0044 13.2785 18.4913C13.5993 17.9782 13.7903 17.3792 13.8317 16.7566L16.9815 19.3206C17.5211 19.7612 18.1735 19.9992 18.8436 20Z" />
</svg>
