<svg width="24" height="24" viewBox="0 0 24 24" fill="#7790A6" xmlns="http://www.w3.org/2000/svg">
<path d="M21.0233 4.51495L19.485 2.97672C18.86 2.3508 18.0126 2 17.1283 2H4.29172C3.02585 2 2 3.02585 2 4.29172V19.7083C2 20.9742 3.02585 22 4.29172 22H19.7083C20.9742 22 22 20.9742 22 19.7083V6.87167C22 5.98743 21.6492 5.13995 21.0233 4.51495ZM5.33328 7.20828V5.125C5.33328 4.78 5.61328 4.5 5.95828 4.5H14.7083C15.0533 4.5 15.3333 4.78 15.3333 5.125V7.20828C15.3333 7.55328 15.0533 7.83328 14.7083 7.83328H5.95828C5.61328 7.83328 5.33328 7.55328 5.33328 7.20828ZM12 18.6667C9.92923 18.6667 8.25 16.9875 8.25 14.9167C8.25 12.8458 9.92923 11.1667 12 11.1667C14.0708 11.1667 15.75 12.8458 15.75 14.9167C15.75 16.9875 14.0708 18.6667 12 18.6667Z" />
</svg>
